<svg width="48" height="48" viewBox="0 0 48 48" fill="none" xmlns="http://www.w3.org/2000/svg">
<circle cx="24" cy="24" r="23.5" stroke="white"/>
<path d="M18.7802 26.7692C17.2202 26.7692 15.9482 25.3517 15.9482 23.6177C15.9482 21.8822 17.1887 20.4647 18.7817 20.4647C20.3567 20.4647 21.6467 21.8822 21.6152 23.6177C21.6152 25.3517 20.3567 26.7692 18.7802 26.7692ZM29.2412 26.7677C27.6812 26.7677 26.4062 25.3502 26.4062 23.6162C26.4062 21.8807 27.6497 20.4632 29.2412 20.4632C30.8162 20.4632 32.1062 21.8807 32.0762 23.6162C32.0762 25.3502 30.8327 26.7677 29.2412 26.7677ZM21.1877 12.4817L20.7257 11.6372L19.7747 11.7962C17.6195 12.1556 15.5219 12.8013 13.5377 13.7162L13.1957 13.8737L12.9827 14.1887C9.06319 19.9682 7.98769 25.6607 8.52019 31.2512L8.57869 31.8617L9.07369 32.2217C11.3795 33.9135 13.9548 35.2032 16.6907 36.0362L17.8757 36.3992L19.5452 32.3252C22.4102 33.0332 25.5902 33.0332 28.4537 32.3252L30.1142 36.4007L31.2992 36.0377C34.0373 35.2065 36.614 33.9156 38.9192 32.2202L39.4097 31.8632L39.4697 31.2602C40.1237 24.7802 38.4242 19.1357 35.0327 14.1842L34.8197 13.8722L34.4777 13.7162C32.494 12.8055 30.399 12.1599 28.2467 11.7962L27.3197 11.6417L26.8487 12.4547C26.7167 12.6797 26.5832 12.9347 26.4542 13.1942C24.827 13.0261 23.1869 13.0261 21.5597 13.1942C21.4322 12.9392 21.3047 12.6932 21.1877 12.4817ZM16.0727 30.9152C16.3682 31.0862 16.6802 31.2542 16.9877 31.4072L16.3142 33.0512C14.4926 32.3872 12.7643 31.4908 11.1722 30.3842C10.8347 25.6772 11.7917 20.9267 15.0182 16.0292C16.3798 15.4295 17.7992 14.9706 19.2542 14.6597C19.3442 14.8472 19.4282 15.0317 19.4972 15.1937L19.9067 16.1582L20.9447 16.0067C22.9788 15.7087 25.0455 15.7087 27.0797 16.0067L28.1147 16.1567L28.5227 15.1937C28.5932 15.0257 28.6757 14.8427 28.7627 14.6597C30.2282 14.9747 31.6472 15.4397 33.0047 16.0322C35.8172 20.2622 37.2362 24.9812 36.8237 30.3827C35.2318 31.4917 33.5022 32.3888 31.6787 33.0512L31.0112 31.4087C31.3202 31.2557 31.6322 31.0877 31.9307 30.9152C32.6657 30.4922 33.4562 29.9642 33.9602 29.4602L32.0402 27.5402C31.7957 27.7862 31.2557 28.1702 30.5747 28.5632C29.9087 28.9472 29.2472 29.2577 28.8242 29.3972C25.8197 30.3917 22.1822 30.3917 19.1762 29.3972C18.7547 29.2577 18.0932 28.9472 17.4272 28.5632C16.7462 28.1717 16.2062 27.7862 15.9602 27.5402L14.0402 29.4602C14.5457 29.9642 15.3377 30.4922 16.0727 30.9152Z" fill="white"/>
</svg>
