<svg width="48" height="48" viewBox="0 0 48 48" fill="none" xmlns="http://www.w3.org/2000/svg">
<circle cx="24" cy="24" r="23.5" stroke="white"/>
<path d="M23.8818 23.5049C23.6377 22.7236 23.6426 21.2148 23.7842 21.2148C24.1943 21.2148 24.1553 23.0166 23.8818 23.5049ZM23.7988 25.8096C23.4229 26.7959 22.9541 27.9238 22.4121 28.8711C23.3057 28.5293 24.3164 28.0313 25.4834 27.8018C24.8633 27.333 24.2676 26.6592 23.7988 25.8096ZM19.2041 31.9033C19.2041 31.9424 19.8486 31.6396 20.9082 29.9404C20.5811 30.248 19.4873 31.1367 19.2041 31.9033ZM27.1094 18.8125H33.75V34.8281C33.75 35.4775 33.2275 36 32.5781 36H16.1719C15.5225 36 15 35.4775 15 34.8281V12.1719C15 11.5225 15.5225 11 16.1719 11H25.9375V17.6406C25.9375 18.2852 26.4648 18.8125 27.1094 18.8125ZM26.7188 27.2012C25.7422 26.6055 25.0928 25.7852 24.6338 24.5742C24.8535 23.6709 25.2002 22.2988 24.9365 21.4395C24.707 20.0039 22.8662 20.1455 22.6025 21.1074C22.3584 22.001 22.583 23.2607 22.998 24.8672C22.4316 26.2148 21.5967 28.0215 21.0059 29.0566C21.001 29.0566 21.001 29.0615 20.9961 29.0615C19.6729 29.7402 17.4023 31.2344 18.335 32.3818C18.6084 32.7187 19.1162 32.8701 19.3848 32.8701C20.2588 32.8701 21.1279 31.9912 22.3682 29.8525C23.6279 29.4375 25.0098 28.9199 26.2256 28.7197C27.2852 29.2959 28.5254 29.6719 29.3506 29.6719C30.7764 29.6719 30.874 28.1094 30.3125 27.5527C29.6338 26.8887 27.6611 27.0791 26.7188 27.2012ZM33.4082 16.127L28.623 11.3418C28.4033 11.1221 28.1055 11 27.793 11H27.5V17.25H33.75V16.9521C33.75 16.6445 33.6279 16.3467 33.4082 16.127ZM29.79 28.5928C29.9902 28.4609 29.668 28.0117 27.7002 28.1533C29.5117 28.9248 29.79 28.5928 29.79 28.5928Z" fill="white"/>
</svg>
