<svg width="48" height="48" viewBox="0 0 48 48" fill="none" xmlns="http://www.w3.org/2000/svg">
<circle cx="24" cy="24" r="23.5" stroke="white"/>
<path d="M39.1271 9.8952C38.9914 9.77801 38.8264 9.7001 38.6497 9.66986C38.473 9.63963 38.2914 9.65822 38.1244 9.72363L9.62539 20.8766C9.27875 21.0122 8.98547 21.2567 8.7896 21.5732C8.59373 21.8897 8.50583 22.2613 8.53912 22.632C8.5724 23.0027 8.72507 23.3527 8.97419 23.6292C9.22331 23.9058 9.55544 24.0941 9.9207 24.1658L17.5313 25.6607V34.1249C17.5315 34.5173 17.6489 34.9007 17.8685 35.2259C18.0881 35.5511 18.3999 35.8032 18.7638 35.95C19.1277 36.0967 19.5272 36.1314 19.911 36.0495C20.2947 35.9676 20.6453 35.7729 20.9176 35.4904L24.6638 31.6049L30.511 36.7307C30.868 37.0465 31.3281 37.2211 31.8048 37.2214C32.0129 37.221 32.2197 37.1882 32.4179 37.1244C32.7427 37.0216 33.0349 36.8355 33.2654 36.5845C33.4958 36.3336 33.6565 36.0266 33.7313 35.6943L39.4435 10.8613C39.4837 10.6867 39.4754 10.5045 39.4197 10.3342C39.3639 10.164 39.2628 10.0122 39.1271 9.8952ZM10.2259 22.505C10.2205 22.4905 10.2205 22.4746 10.2259 22.46C10.2322 22.4551 10.2393 22.4513 10.2469 22.4488L32.7062 13.6569L18.1796 24.0632L10.2469 22.5107L10.2259 22.505ZM19.7026 34.3175C19.6638 34.3578 19.614 34.3855 19.5594 34.3973C19.5048 34.4091 19.4479 34.4043 19.396 34.3837C19.3441 34.363 19.2995 34.3273 19.268 34.2813C19.2364 34.2352 19.2193 34.1807 19.2188 34.1249V26.8279L23.394 30.4841L19.7026 34.3175ZM32.0874 35.3132C32.077 35.3607 32.0541 35.4046 32.0209 35.4402C31.9878 35.4758 31.9457 35.5019 31.899 35.5157C31.8514 35.5324 31.8001 35.536 31.7506 35.5261C31.7012 35.5162 31.6553 35.4932 31.6177 35.4594L19.7307 25.0321L37.3594 12.3983L32.0874 35.3132Z" fill="white"/>
</svg>
