<svg width="48" height="48" viewBox="0 0 48 48" fill="none" xmlns="http://www.w3.org/2000/svg">
<circle cx="24" cy="24" r="23.5" stroke="white"/>
<path d="M20.1006 31.0137C20.1006 31.1113 19.9883 31.1895 19.8467 31.1895C19.6855 31.2041 19.5732 31.126 19.5732 31.0137C19.5732 30.916 19.6855 30.8379 19.8271 30.8379C19.9736 30.8232 20.1006 30.9014 20.1006 31.0137ZM18.582 30.7939C18.5479 30.8916 18.6455 31.0039 18.792 31.0332C18.9189 31.082 19.0654 31.0332 19.0947 30.9355C19.124 30.8379 19.0312 30.7256 18.8848 30.6816C18.7578 30.6475 18.6162 30.6963 18.582 30.7939ZM20.7402 30.7109C20.5986 30.7451 20.501 30.8379 20.5156 30.9502C20.5303 31.0479 20.6572 31.1113 20.8037 31.0771C20.9453 31.043 21.043 30.9502 21.0283 30.8525C21.0137 30.7598 20.8818 30.6963 20.7402 30.7109ZM23.9531 12C17.1807 12 12 17.1416 12 23.9141C12 29.3291 15.4082 33.9629 20.2764 35.5938C20.9014 35.7061 21.1211 35.3203 21.1211 35.0029C21.1211 34.7002 21.1064 33.0303 21.1064 32.0049C21.1064 32.0049 17.6885 32.7373 16.9707 30.5498C16.9707 30.5498 16.4141 29.1289 15.6133 28.7627C15.6133 28.7627 14.4951 27.9961 15.6914 28.0107C15.6914 28.0107 16.9072 28.1084 17.5762 29.2705C18.6455 31.1553 20.4375 30.6133 21.1357 30.291C21.248 29.5098 21.5654 28.9678 21.917 28.6455C19.1875 28.3428 16.4336 27.9473 16.4336 23.25C16.4336 21.9072 16.8047 21.2334 17.5859 20.374C17.459 20.0566 17.0439 18.748 17.7129 17.0586C18.7334 16.7412 21.082 18.377 21.082 18.377C22.0586 18.1035 23.1084 17.9619 24.1484 17.9619C25.1885 17.9619 26.2383 18.1035 27.2148 18.377C27.2148 18.377 29.5635 16.7363 30.584 17.0586C31.2529 18.7529 30.8379 20.0566 30.7109 20.374C31.4922 21.2383 31.9707 21.9121 31.9707 23.25C31.9707 27.9619 29.0947 28.3379 26.3652 28.6455C26.8145 29.0312 27.1953 29.7637 27.1953 30.9111C27.1953 32.5566 27.1807 34.5928 27.1807 34.9932C27.1807 35.3105 27.4053 35.6963 28.0254 35.584C32.9082 33.9629 36.2188 29.3291 36.2188 23.9141C36.2188 17.1416 30.7256 12 23.9531 12ZM16.7461 28.8408C16.6826 28.8896 16.6973 29.002 16.7803 29.0947C16.8584 29.1729 16.9707 29.207 17.0342 29.1436C17.0977 29.0947 17.083 28.9824 17 28.8896C16.9219 28.8115 16.8096 28.7773 16.7461 28.8408ZM16.2188 28.4453C16.1846 28.5088 16.2334 28.5869 16.3311 28.6357C16.4092 28.6846 16.5068 28.6699 16.541 28.6016C16.5752 28.5381 16.5264 28.46 16.4287 28.4111C16.3311 28.3818 16.2529 28.3965 16.2188 28.4453ZM17.8008 30.1836C17.7227 30.2471 17.752 30.3936 17.8643 30.4863C17.9766 30.5986 18.1182 30.6133 18.1816 30.5352C18.2451 30.4717 18.2158 30.3252 18.1182 30.2324C18.0107 30.1201 17.8643 30.1055 17.8008 30.1836ZM17.2441 29.4658C17.166 29.5146 17.166 29.6416 17.2441 29.7539C17.3223 29.8662 17.4541 29.915 17.5176 29.8662C17.5957 29.8027 17.5957 29.6758 17.5176 29.5635C17.4492 29.4512 17.3223 29.4023 17.2441 29.4658Z" fill="white"/>
</svg>
