<svg width="40" height="40" viewBox="0 0 40 40" fill="none" xmlns="http://www.w3.org/2000/svg">
<path d="M26.5165 19.3834H34.3332C34.1998 11.6 32.6665 10.3167 27.8832 7.48337C27.3332 7.15003 27.1498 6.45003 27.4832 5.88337C27.7998 5.33337 28.5165 5.15003 29.0665 5.48337C34.6998 8.8167 36.6665 10.85 36.6665 20.5334V29.5167C36.6665 32.3667 34.3498 34.6667 31.5165 34.6667H26.5165C23.5832 34.6667 21.3665 32.45 21.3665 29.5167V24.5167C21.3665 21.6 23.5832 19.3834 26.5165 19.3834Z" fill="white"/>
<path d="M8.48324 19.3834H16.2999C16.1666 11.6 14.6332 10.3167 9.8499 7.48337C9.2999 7.15003 9.11657 6.45003 9.4499 5.88337C9.78324 5.33337 10.4832 5.15003 11.0499 5.48337C16.6832 8.8167 18.6499 10.85 18.6499 20.55V29.5334C18.6499 32.3834 16.3332 34.6834 13.4999 34.6834H8.4999C5.56657 34.6834 3.3499 32.4667 3.3499 29.5334V24.5334C3.33324 21.6 5.5499 19.3834 8.48324 19.3834Z" fill="white"/>
</svg>
